# xmcd
#
# Track frame offsets:
#	183
#	12680
#	23070
#	34333
#	45275
#	57665
#	71810
#	83213
#	93843
#	115843
#	128775
#	140498
#	153238
#	161805
#	173990
#	186713
#
# Disc length: 2665
#
# Revision: 1
# Processed by: cddbd v1.5.1PL0 Copyright (c) Steve Scherf et al.
# Submitted via: dBpowerAMP V4.0
# Normalized: r0:TRMNUM
#
DISCID=e20a6710
DTITLE=Elmore James - King Of The Slide Guitar Vol 2
DYEAR=1900
DGENRE=Blues
TTITLE0=The Sun Is Shining
TTITLE1=I Can't Hold Out
TTITLE2=Stormy Monday Blues
TTITLE3=Madison Blues
TTITLE4=The Sun Is Shining (ALT.)
TTITLE5=Strange Angels
TTITLE6=Rollin' And Tumblin'
TTITLE7=Done Somebody Wrong
TTITLE8=Something Inside Me
TTITLE9=I'm Worried
TTITLE10=Fine Little Mama
TTITLE11=I Need You
TTITLE12=She Done Moved
TTITLE13=I Can't Stop Loving You
TTITLE14=Early One Morning
TTITLE15=Stranger Blues
EXTD=
EXTT0=
EXTT1=
EXTT2=
EXTT3=
EXTT4=
EXTT5=
EXTT6=
EXTT7=
EXTT8=
EXTT9=
EXTT10=
EXTT11=
EXTT12=
EXTT13=
EXTT14=
EXTT15=
PLAYORDER=
